<svg width="32" height="32" viewBox="0 0 32 32" fill="none" xmlns="http://www.w3.org/2000/svg">
<path d="M14 20V4L10 4.00001C4.48112 4.00001 2.88478 13.466 1.73221 17.5M18 20V4L22 4.00001C27.5189 4.00001 29.1152 13.466 30.2678 17.5M14 12H18M14 20.5C14 24.0899 11.0899 27 7.5 27C3.91015 27 1 24.0899 1 20.5C1 16.9101 3.91015 14 7.5 14C11.0899 14 14 16.9101 14 20.5ZM31 20.5C31 24.0899 28.0899 27 24.5 27C20.9101 27 18 24.0899 18 20.5C18 16.9101 20.9101 14 24.5 14C28.0899 14 31 16.9101 31 20.5Z" stroke="white" stroke-miterlimit="2.61313"/>
</svg>
