<svg width="142" height="156" fill="none" version="1.1" viewBox="0 0 142 156" xmlns="http://www.w3.org/2000/svg">
 <path d="m99.056 78c0 15.377-12.566 27.851-28.056 27.851s-28.056-12.474-28.056-27.851 12.566-27.852 28.056-27.852 28.056 12.475 28.056 27.852zm.8469 21.614c-6.611 8.705-17.101 14.346-28.903 14.346-19.997 0-36.251-16.136-36.251-35.987s16.254-35.987 36.251-35.987 36.251 16.136 36.251 35.987c0 5.2069-1.147 10.143-3.169 14.644l36.142 20.719c1.148-2.874 1.776-5.966 1.776-9.166v-9.3832l-5.382-3.0916c-10.353-5.9391-10.353-20.773 0-26.685l5.382-3.0916v-10.143c0-8.9765-4.808-17.248-12.648-21.75l-8.196-4.6917-5.709 3.2815c-10.354 5.9391-23.303-1.4916-23.303-13.343v-6.5357l-8.5233-4.8815c-7.813-4.4747-17.456-4.4747-25.269 0l-8.8785 5.0984v5.6951c0 11.878-12.949 19.282-23.302 13.343l-4.9719-2.8475-8.5506 4.9086c-7.813 4.4747-12.648 12.773-12.648 21.75v10.576l4.6441 2.6577c10.354 5.9391 10.354 20.773 0 26.685l-4.6441 2.6577v9.817c0 8.977 4.808 17.248 12.648 21.75l9.2063 5.288 4.3162-2.468c10.354-5.939 23.302 1.492 23.302 13.343v4.936l8.8785 5.098c7.813 4.475 17.456 4.475 25.297 0l8.5233-4.881v-5.804c0-11.878 12.948-19.282 23.302-13.343l5.054 2.902 8.851-5.071c2.595-1.492 4.808-3.417 6.666-5.614l-36.115-20.692-.0273-.0271z" fill="url(#paint0_linear_2150_571)"/>
 <defs>
  <linearGradient id="paint0_linear_2150_571" x1="142" x2="-12.407" y1="155.5" y2="14.043" gradientUnits="userSpaceOnUse">
   <stop stop-color="#D10956" offset="0"/>
   <stop stop-color="#02B1D0" offset="1"/>
  </linearGradient>
 </defs>
</svg>
