<svg width="32" height="32" viewBox="0 0 32 32" fill="none" xmlns="http://www.w3.org/2000/svg">
<path d="M20 20L23.9993 20C26.2088 20 28 18.2088 28 15.9992C27.9998 13.2909 27.0835 10.6622 25.3999 8.54069C23.7164 6.41916 21.3647 4.92953 18.7272 4.31401C16.0897 3.6985 13.3215 3.99331 10.8728 5.1505C8.42412 6.30769 6.43889 8.2592 5.23992 10.6877C4.04095 13.1162 3.69877 15.8789 4.26901 18.5266C4.83925 21.1742 6.28838 23.5511 8.38076 25.2708C10.4731 26.9904 13.0857 27.9517 15.7937 27.9982C18.5017 28.0448 21.1457 27.1739 23.296 25.5272" stroke="url(#paint0_linear_2102_750)" stroke-width="2" stroke-miterlimit="2.61313"/>
<path d="M20 11.5V21M20 16.25C20 18.5972 18.0972 20.5 15.75 20.5C13.4028 20.5 11.5 18.5972 11.5 16.25C11.5 13.9028 13.4028 12 15.75 12C18.0972 12 20 13.9028 20 16.25Z" stroke="white" stroke-miterlimit="2.61313"/>
<defs>
<linearGradient id="paint0_linear_2102_750" x1="28" y1="28" x2="4" y2="4" gradientUnits="userSpaceOnUse">
<stop stop-color="#D10956"/>
<stop offset="1" stop-color="#02B1D0"/>
</linearGradient>
</defs>
</svg>
