<svg width="32" height="32" viewBox="0 0 32 32" fill="none" xmlns="http://www.w3.org/2000/svg">
<g clip-path="url(#clip0_2102_714)">
<path d="M14.5 19.5V4H10C2 4 0.5 19 0.5 19M17.5 19.5V4H22C30 4 31.5 19 31.5 19M14.5 12H17.5" stroke="white" stroke-miterlimit="2.61313" stroke-linecap="square"/>
<path d="M14 19.5C14 23.0899 11.0899 26 7.5 26C3.91015 26 1 23.0899 1 19.5C1 15.9101 3.91015 13 7.5 13C11.0899 13 14 15.9101 14 19.5ZM31 19.5C31 23.0899 28.0899 26 24.5 26C20.9101 26 18 23.0899 18 19.5C18 15.9101 20.9101 13 24.5 13C28.0899 13 31 15.9101 31 19.5Z" stroke="url(#paint0_linear_2102_714)" stroke-width="2" stroke-miterlimit="2.61313" stroke-linecap="square"/>
</g>
<defs>
<linearGradient id="paint0_linear_2102_714" x1="32" y1="27" x2="20.4708" y2="2.40432" gradientUnits="userSpaceOnUse">
<stop stop-color="#D10956"/>
<stop offset="1" stop-color="#02B1D0"/>
</linearGradient>
<clipPath id="clip0_2102_714">
<rect width="32" height="32" fill="white"/>
</clipPath>
</defs>
</svg>
