<svg width="32" height="32" viewBox="0 0 32 32" fill="none" xmlns="http://www.w3.org/2000/svg">
<path d="M16 15V26M12 28.5H20M12 30.5H20M4 4.75L7 7.25M16 1V5M7 23L4 25.5M1 15.5H5M28 4.75L25 7.25M25 23L28 25.5M31 15.5H27" stroke="white" stroke-miterlimit="2.61313"/>
<path d="M19.5621 22.8269L19 23.1007V23.7259V26H13V23.7259V23.1007L12.4379 22.8269C9.79776 21.5409 8 18.8801 8 15.8214C8 11.5206 11.5627 8 16 8C20.4373 8 24 11.5206 24 15.8214C24 18.8801 22.2022 21.5409 19.5621 22.8269Z" stroke="url(#paint0_linear_2102_734)" stroke-width="2" stroke-miterlimit="2.61313"/>
<defs>
<linearGradient id="paint0_linear_2102_734" x1="25" y1="27" x2="5.1105" y2="9.09945" gradientUnits="userSpaceOnUse">
<stop stop-color="#D10956"/>
<stop offset="1" stop-color="#02B1D0"/>
</linearGradient>
</defs>
</svg>
