<svg width="32" height="32" viewBox="0 0 32 32" fill="none" xmlns="http://www.w3.org/2000/svg">
<path d="M8.15054 18.1276L7.24271 19.0354C4.89956 21.3786 4.89957 25.1775 7.24271 27.5207C9.58586 29.8638 13.3848 29.8638 15.728 27.5207L20.0038 23.2448C22.3424 20.9062 22.3811 17.1267 20.0909 14.7407L19.8726 14.5133C17.9299 12.4894 14.8042 12.1777 12.5001 13.778" stroke="white" stroke-miterlimit="2.61313"/>
<path d="M23.0627 13.6358L23.9705 12.728C26.3137 10.3848 26.3137 6.58586 23.9705 4.24271C21.6274 1.89957 17.8284 1.89957 15.4853 4.24271L11.3763 8.35164C8.96964 10.7583 8.9979 14.669 11.4391 17.0407L11.7834 17.3751C13.6568 19.1952 16.5506 19.45 18.7132 17.9854" stroke="url(#paint0_linear_2102_746)" stroke-width="2" stroke-miterlimit="2.61313"/>
<defs>
<linearGradient id="paint0_linear_2102_746" x1="25.7279" y1="18.9333" x2="9.28293" y2="2.7979" gradientUnits="userSpaceOnUse">
<stop stop-color="#D10956"/>
<stop offset="1" stop-color="#02B1D0"/>
</linearGradient>
</defs>
</svg>
