<svg width="32" height="32" viewBox="0 0 32 32" fill="none" xmlns="http://www.w3.org/2000/svg">
<path d="M2.00353 11.0396L4.00865 13.4964C4.58581 14.2035 4.90089 15.0884 4.90057 16.0011C4.90024 16.9139 4.58454 17.7985 4.00691 18.5053L2 20.9607L4.48323 25.0431L7.74001 24.619C8.65964 24.4992 9.59351 24.6753 10.4063 25.1218C11.2585 25.5899 11.93 26.329 12.3146 27.2219L13.5103 29.9983L18.468 30L19.6651 27.2259C20.0507 26.3322 20.7235 25.5928 21.5769 25.1248C22.3892 24.6793 23.3221 24.5034 24.2408 24.6224L27.5045 25.0453L29.9906 20.9646L27.9836 18.5055C27.4077 17.7999 27.0933 16.9169 27.0936 16.0061C27.0939 15.095 27.4092 14.212 27.9859 13.5066L30 11.0435L27.5168 6.96111L24.2594 7.38092C23.3381 7.49965 22.4034 7.31124 21.6001 6.84488C20.8164 6.38991 20.1999 5.69486 19.8417 4.86248L18.61 2L13.5215 2.00231L12.3281 4.77646C11.9431 5.67122 11.2702 6.41163 10.4161 6.88001C9.60453 7.3251 8.67255 7.50085 7.75461 7.38192L4.48967 6.9589L2.00353 11.0396Z" stroke="white"/>
<path d="M15.9986 20C17.0595 20.0004 18.0771 19.5793 18.8275 18.8294C19.5779 18.0796 19.9996 17.0623 20 16.0014C20.0004 14.9406 19.5793 13.923 18.8294 13.1726C18.0795 12.4222 17.0622 12.0004 16.0014 12C14.9405 11.9996 13.9229 12.4207 13.1725 13.1706C12.4221 13.9205 12.0004 14.9377 12 15.9986C11.9996 17.0594 12.4207 18.077 13.1706 18.8274C13.9205 19.5778 14.9378 19.9996 15.9986 20Z" stroke="url(#paint0_linear_2102_730)" stroke-width="2"/>
<defs>
<linearGradient id="paint0_linear_2102_730" x1="20" y1="20" x2="12" y2="12" gradientUnits="userSpaceOnUse">
<stop stop-color="#D10956"/>
<stop offset="1" stop-color="#02B1D0"/>
</linearGradient>
</defs>
</svg>
