<svg width="32" height="32" viewBox="0 0 32 32" fill="none" xmlns="http://www.w3.org/2000/svg">
<path d="M18.3367 24C17.7206 25.2994 17.9501 26.8998 19.0251 27.9749C20.392 29.3417 22.608 29.3417 23.9749 27.9749C25.3417 26.608 25.3417 24.392 23.9749 23.0251C22.608 21.6583 20.392 21.6583 19.0251 23.0251C18.7334 23.3169 18.5039 23.6474 18.3367 24ZM18.3367 24L11 19M18.3367 8C18.5039 8.35264 18.7334 8.68311 19.0251 8.97487C20.392 10.3417 22.608 10.3417 23.9749 8.97487C25.3417 7.60804 25.3417 5.39196 23.9749 4.02513C22.608 2.65829 20.392 2.65829 19.0251 4.02513C17.9501 5.10019 17.7206 6.70064 18.3367 8ZM18.3367 8L11 14" stroke="white"/>
<path d="M6.02513 14.0251C7.39196 12.6583 9.60804 12.6583 10.9749 14.0251C12.3417 15.392 12.3417 17.608 10.9749 18.9749C9.60804 20.3417 7.39196 20.3417 6.02513 18.9749C4.65829 17.608 4.65829 15.392 6.02513 14.0251Z" stroke="url(#paint0_linear_2102_762)" stroke-width="2"/>
<defs>
<linearGradient id="paint0_linear_2102_762" x1="12" y1="20" x2="5" y2="13" gradientUnits="userSpaceOnUse">
<stop stop-color="#D10956"/>
<stop offset="1" stop-color="#02B1D0"/>
</linearGradient>
</defs>
</svg>
