<svg width="32" height="32" viewBox="0 0 32 32" fill="none" xmlns="http://www.w3.org/2000/svg">
<g clip-path="url(#clip0_2102_770)">
<path d="M17.75 14L17 11.8571V9H23V11.8571L22.25 14M7.5 3.5C7.5 4.88071 6.38071 6 5 6M7.5 3.5C7.5 2.11929 6.38071 1 5 1C3.61929 1 2.5 2.11929 2.5 3.5C2.5 4.88071 3.61929 6 5 6M7.5 3.5H18.5M5 6L1.12602 26M5 6L8.87398 26M20 5C20.8284 5 21.5 4.32843 21.5 3.5C21.5 2.67157 20.8284 2 20 2C19.1716 2 18.5 2.67157 18.5 3.5M20 5C19.1716 5 18.5 4.32843 18.5 3.5M20 5V9M1 27C1 24.7909 2.79086 23 5 23C7.20914 23 9 24.7909 9 27M0 28H5M10 28H5M0 31H5M10 31H5M17 27H19M21 27H23M25 27H27M5 31V28M13 22V31H31V18L25 22V18L19 22V18L13 22Z" stroke="white" stroke-miterlimit="2.61313"/>
</g>
<defs>
<clipPath id="clip0_2102_770">
<rect width="32" height="32" fill="white"/>
</clipPath>
</defs>
</svg>
