<svg width="32" height="32" viewBox="0 0 32 32" fill="none" xmlns="http://www.w3.org/2000/svg">
<path d="M16 2L3 9L16 16M16 2L29 9L16 16M16 2V16M16 23L29 16L22.5 12.5M16 23L3 16L9.5 12.5M16 23L9.5 26.5M9.5 19.5L3 23L16 30L29 23L22.5 19.5M12.6877 28.2164L25.5 21.1154M6.34864 24.8031L12.6877 21.2164M14.5 18.5L13.5 17.5M18.5 18.5L17.5 17.5M22.5 18.5L21.5 17.5M10.5 18.5L9.5 17.5M20.5 16.5L19.5 15.5M24.5 16.5L23.5 15.5M12.5 16.5L11.5 15.5M8.5 16.5L7.5 15.5M10.5 14.5L9.5 13.5M22.5 14.5L21.5 13.5M20.5 20.5L19.5 19.5M16.5 20.5L15.5 19.5M12.5 20.5L11.5 19.5M11 4.69231V13.3077M21 4.69231V13.3077" stroke="white"/>
</svg>
