<svg width="32" height="32" viewBox="0 0 32 32" fill="none" xmlns="http://www.w3.org/2000/svg">
<path d="M10.0503 12.0503L5 7M10.0503 12.0503C7.31658 14.7839 7.31658 19.2161 10.0503 21.9498M10.0503 12.0503C12.7839 9.31659 17.2161 9.31659 19.9497 12.0503M8.3883 19.3039L1 21.3301M16.413 10.1433L18.3301 3M13.4224 10.1791L11.5 3M8.19036 15.3744L1 13.5M5 27L25 7M30 15V18C30 19.6569 28.6569 21 27 21M24 15V18C24 19.6569 25.3431 21 27 21M27 21C27 26.5 20 28.5 20 22.5C20 17.3793 17.9515 26.0361 12 23.2726M24 17H30M27 14V18" stroke="white"/>
</svg>
