<svg width="32" height="32" viewBox="0 0 32 32" fill="none" xmlns="http://www.w3.org/2000/svg">
<g clip-path="url(#clip0_2102_810)">
<path d="M18 11L14.5 15L18 16.5L14 21M26.0795 26.0855C22.9301 29.2358 15.9969 23.2357 15.9969 23.2357C15.9969 23.2357 9.06367 29.2358 5.91423 26.0855C2.7648 22.9352 8.76319 16 8.76319 16C8.76319 16 2.7648 9.06482 5.91423 5.91449C9.06367 2.76416 15.9969 8.76426 15.9969 8.76426C15.9969 8.76426 22.9301 2.76416 26.0795 5.91449C29.2289 9.06482 23.2862 16.4397 23.2862 16.4397C23.2862 16.4397 29.2234 22.9352 26.0795 26.0855ZM16 31C11.318 31 10.6215 21.3785 10.6215 21.3785C10.6215 21.3785 1 20.682 1 16C1 11.318 10.6215 10.6215 10.6215 10.6215C10.6215 10.6215 11.318 1 16 1C20.682 1 21.3785 10.6215 21.3785 10.6215C21.3785 10.6215 31 11.318 31 16C31 20.682 21.0975 21.753 21.0975 21.753C21.0975 21.753 20.682 31 16 31Z" stroke="white"/>
</g>
<defs>
<clipPath id="clip0_2102_810">
<rect width="32" height="32" fill="white"/>
</clipPath>
</defs>
</svg>
