<svg width="32" height="32" viewBox="0 0 32 32" fill="none" xmlns="http://www.w3.org/2000/svg">
<path d="M29 21H2.99998L1.62125 26.5149C1.30567 27.7772 2.26039 29 3.56153 29H28.4384C29.7396 29 30.6943 27.7772 30.3787 26.5149L29 21ZM29 21V16M29 6V5C29 3.89543 28.1045 3 27 3H4.99998C3.89541 3 2.99998 3.89543 2.99998 5V18H10.0801C10.664 18 11.2187 17.7449 11.5986 17.3016L17 11L23 15L29 9M29 9L29 14M29 9H24M9.99996 8C9.99996 7 8.99996 6 7.99996 6C6.82489 6 5.78722 6.85484 5.99998 9C6.13436 10.3548 6.52559 11.4135 5.99998 13H11M8.49996 10H6.2186M7.49997 25H8.49997M15.5 25H16.5M23.5 25H24.5M11.5 25H12.5M19.5 25H20.5M5.49997 23H6.49997M13.5 23H14.5M21.5 23H22.5M9.49997 23H10.5M17.5 23H18.5M25.5 23H26.5M5.49997 27H6.49997M13.5 27H14.5M21.5 27H22.5M9.49997 27H10.5M17.5 27H18.5M25.5 27H26.5" stroke="white" stroke-miterlimit="2.61313"/>
</svg>
