<svg width="32" height="32" viewBox="0 0 32 32" fill="none" xmlns="http://www.w3.org/2000/svg">
<path d="M26.0001 17.9998V20.7187C26.0001 21.0668 26.0909 21.4088 26.2636 21.711L29.2902 27.0076C30.0521 28.3409 29.0894 29.9998 27.5537 29.9998H20.4464C18.9108 29.9998 17.9481 28.3409 18.71 27.0076L21.7366 21.711C21.9093 21.4088 22.0001 21.0668 22.0001 20.7187V15.9998M20.0001 24.4998C24.0001 24.9998 24.0001 21.9998 27.0001 22.4998M24.0001 26.9998H25.0001M25.0001 14.9998H26.0001M28.0001 12.9998H29.0001M26.0001 9.99985H27.0001M23.0001 11.9998H24.0001M10.5001 11.4998L11.5001 10.4998M14.7484 9.99547C16.2276 15.5159 15.7486 20.4408 13.6784 20.9955C11.6082 21.5502 8.73092 17.5246 7.25172 12.0042C5.77253 6.48378 6.2516 1.55891 8.32176 1.00422C10.3919 0.449517 13.2692 4.47504 14.7484 9.99547ZM12.0045 14.7482C6.48403 16.2274 1.55916 15.7483 1.00446 13.6782C0.449761 11.608 4.47528 8.73068 9.99572 7.25148C15.5161 5.77229 20.441 6.25136 20.9957 8.32153C21.5504 10.3917 17.5249 13.269 12.0045 14.7482Z" stroke="white" stroke-miterlimit="2.61313"/>
</svg>
