<svg width="32" height="32" viewBox="0 0 32 32" fill="none" xmlns="http://www.w3.org/2000/svg">
<path d="M29.1874 20.6947C30.0873 18.1741 30.2754 15.3685 29.572 12.5785C27.6824 5.08286 20.0741 0.538322 12.5785 2.42797C10.002 3.07751 7.77413 4.40273 6.03645 6.16681M27 25C25 27 22.6536 28.7572 19.4215 29.572C11.9259 31.4617 4.31762 26.9171 2.42797 19.4215C1.67819 16.4474 1.94139 13.4555 3 10.8101M27 25V29M27 25H23M6 2.01748V6.16464H10.1836" stroke="white"/>
<path d="M19 17C19 17 23.5 16 23.5 11C18.5 10 17.5196 13.5 17.5196 13.5M17.5196 26V19.1373C17.5196 15.9077 14.7213 11.3388 7.5 11.5705C7.50003 17.1617 12.6063 19.6572 15.5504 19.6572" stroke="white"/>
</svg>
