<svg width="300" height="92" viewBox="0 0 300 92" fill="none" xmlns="http://www.w3.org/2000/svg">
<g clip-path="url(#clip0_2102_1422)">
<path d="M118.527 41.6769V80.7592H109.898V78.2468C107.835 80.4056 104.947 81.5781 101.964 81.5036C94.5178 81.5036 88.5906 75.3993 88.5906 67.099C88.5906 58.7986 94.5178 52.6944 101.964 52.6944C104.965 52.5827 107.854 53.7924 109.898 55.9512V41.6582H118.527V41.6769ZM110.124 67.0618C110.33 63.3396 107.291 60.2131 103.54 60.3247C99.8072 60.2503 96.8249 63.3769 97.125 67.0618C97.125 71.1933 99.826 73.9105 103.54 73.9105C107.329 73.9663 110.367 70.8211 110.124 67.0618ZM120.158 67.1176C120.158 58.8173 126.086 52.713 133.532 52.713C136.533 52.6199 139.422 53.811 141.466 55.9698V53.4574H150.095V80.7592H141.466V78.2468C139.403 80.4056 136.515 81.5781 133.532 81.5036C126.086 81.5036 120.158 75.3993 120.158 67.099V67.1176ZM141.673 67.0618C141.879 63.3396 138.84 60.2131 135.089 60.3247C131.356 60.2503 128.374 63.3769 128.674 67.0618C128.674 71.1933 131.375 73.9105 135.089 73.9105C138.878 73.9849 141.917 70.8211 141.691 67.0618H141.673ZM172.434 79.8659C170.296 80.7592 168.007 81.2059 165.682 81.2059C158.985 81.2059 155.984 77.1301 155.984 70.9328V60.9761H151.726V53.476H155.984V44.9151H164.612V53.476H172.003V60.9761H164.612V70.9142C164.387 72.5705 165.813 73.9849 167.463 73.7616C168.476 73.7802 169.489 73.5383 170.371 73.0544L172.415 79.8659H172.434ZM173.578 67.1176C173.578 58.8173 179.505 52.713 186.952 52.713C189.953 52.6199 192.842 53.811 194.886 55.9698V53.4574H203.533V80.7592H194.886V78.2468C192.823 80.4056 189.953 81.5781 186.952 81.5036C179.505 81.5036 173.578 75.3993 173.578 67.099V67.1176ZM195.092 67.0618C195.299 63.3396 192.279 60.2131 188.509 60.3247C184.776 60.2503 181.794 63.3769 182.075 67.0618C182.075 71.1933 184.776 73.9105 188.509 73.9105C192.298 73.9849 195.336 70.8211 195.092 67.0618ZM205.146 67.1176C205.052 63.2652 206.572 59.5245 209.329 56.8073C212.105 54.0902 215.856 52.6199 219.758 52.713C227.636 52.713 232.494 57.7006 233.525 61.9811L225.535 64.233C224.747 61.7763 222.403 60.1572 219.814 60.2875C215.988 60.2875 213.549 63.3955 213.549 67.0804C213.549 70.7653 215.969 73.9849 219.814 73.9849C222.384 74.1338 224.728 72.5519 225.535 70.1139L233.525 72.3658C232.494 76.6462 227.636 81.5222 219.87 81.5222C215.969 81.6525 212.18 80.2009 209.385 77.4651C206.609 74.748 205.071 71.0072 205.146 67.1176ZM234.651 45.4362C234.595 41.0255 239.94 38.7736 243.11 41.8816C246.261 44.9709 244.048 50.3122 239.621 50.3122C236.883 50.3494 234.651 48.1534 234.67 45.4362H234.651ZM235.195 53.4574H243.842V80.7592H235.195V53.4574ZM266.219 79.8659C264.08 80.7592 261.792 81.2059 259.466 81.2059C252.77 81.2059 249.769 77.1301 249.769 70.9328V60.9761H245.511V53.476H249.769V44.9151H258.397V53.476H265.787V60.9761H258.397V70.9142C258.172 72.5705 259.598 73.9849 261.248 73.7616C262.261 73.7802 263.274 73.5383 264.155 73.0544L266.2 79.8659H266.219ZM300 53.4574L283.644 92H274.847L279.761 80.1078L267.4 53.4388H276.854L284.019 70.0953L290.753 53.4388H299.981L300 53.4574Z" fill="white"/>
<path d="M26.3468 0L57.3825 18.4395V80.8604H26.3468V0ZM0 15.6849V80.8791H3.25614V52.845L4.33532 52.1704V13.0801L0 15.6849ZM8.78228 10.4566V80.8416H12.0384V27.9404L13.1176 27.2845V7.87053L8.78228 10.4753V10.4566ZM17.6762 5.15333V80.8791H20.9323V19.1516L22.0115 18.4958V2.56729L17.6762 5.15333Z" fill="white"/>
</g>
<defs>
<clipPath id="clip0_2102_1422">
<rect width="300" height="92" fill="white"/>
</clipPath>
</defs>
</svg>
