<svg width="300" height="195" viewBox="0 0 300 195" fill="none" xmlns="http://www.w3.org/2000/svg">
<path d="M42.5151 123.171V178.952H30.2606V175.368C27.3496 178.437 23.2413 180.124 18.9921 180.03C8.42789 180.03 0 171.315 0 159.484C0 147.653 8.42789 138.938 18.9921 138.938C23.2413 138.797 27.3496 140.484 30.2606 143.6V123.195H42.5151V123.171ZM30.5892 159.39C30.8944 154.072 26.5748 149.621 21.2458 149.761C15.9402 149.644 11.7145 154.119 12.1371 159.39C12.1371 165.27 15.9637 169.159 21.2458 169.159C26.6218 169.253 30.9179 164.732 30.5892 159.39ZM44.8157 159.46C44.8157 147.63 53.2436 138.914 63.8078 138.914C68.057 138.774 72.1653 140.461 75.0763 143.577V139.992H87.3308V178.952H75.0763V175.368C72.1653 178.437 68.057 180.124 63.8078 180.03C53.2436 180.03 44.8157 171.315 44.8157 159.46ZM75.358 159.39C75.6632 154.072 71.3436 149.621 66.0146 149.761C60.7325 149.644 56.4833 154.119 56.9059 159.39C56.9059 165.27 60.7325 169.159 66.0146 169.159C71.3906 169.253 75.7101 164.732 75.3815 159.39H75.358ZM119 177.64C115.972 178.905 112.708 179.561 109.422 179.538C99.9374 179.538 95.6648 173.728 95.6648 164.872V150.652H89.6079V139.945H95.6648V127.716H107.919V139.945H118.39V150.652H107.896V164.849C107.567 167.215 109.586 169.23 111.957 168.902C113.413 168.925 114.821 168.597 116.089 167.894L119 177.617V177.64ZM120.62 159.46C120.62 147.63 129.048 138.914 139.612 138.914C143.861 138.774 147.969 140.461 150.857 143.577V139.992H163.111V178.952H150.857V175.368C147.946 178.437 143.838 180.124 139.612 180.03C129.048 180.03 120.62 171.315 120.62 159.46ZM151.162 159.39C151.467 154.072 147.148 149.621 141.819 149.761C136.536 149.644 132.287 154.119 132.71 159.39C132.71 165.27 136.536 169.159 141.819 169.159C147.195 169.253 151.514 164.732 151.162 159.39ZM165.412 159.46C165.295 153.955 167.431 148.637 171.351 144.748C175.272 140.859 180.624 138.75 186.141 138.914C197.316 138.914 204.218 146.013 205.673 152.128L194.334 155.337C193.231 151.846 189.897 149.527 186.235 149.691C180.789 149.691 177.361 154.119 177.361 159.39C177.361 164.661 180.812 169.253 186.235 169.253C189.874 169.464 193.208 167.215 194.334 163.748L205.673 166.957C204.218 173.072 197.316 180.03 186.306 180.03C180.765 180.241 175.389 178.132 171.422 174.243C167.478 170.354 165.295 165.013 165.412 159.484V159.46ZM207.293 128.513C207.223 122.234 214.806 119.024 219.289 123.429C223.75 127.857 220.628 135.471 214.336 135.471C210.439 135.541 207.27 132.402 207.293 128.513ZM208.068 139.969H220.322V178.929H208.068V139.969ZM252.085 177.64C249.057 178.905 245.794 179.561 242.507 179.538C233.023 179.538 228.75 173.728 228.75 164.872V150.652H222.693V139.945H228.75V127.716H241.005V139.945H251.499V150.652H241.005V164.849C240.676 167.215 242.695 169.23 245.066 168.902C246.522 168.925 247.93 168.597 249.198 167.894L252.109 177.617L252.085 177.64ZM300 139.969L276.806 195H264.316L271.289 178.038L253.752 139.992H267.157L277.346 163.771L286.9 139.992H300V139.969Z" fill="#0D062A"/>
<path d="M146.342 0L186.207 23.2594V101.996H146.342V0ZM112.5 19.761V101.996H116.682V66.6344L118.069 65.7834V16.499L112.5 19.7847V19.761ZM123.781 13.1898V101.973H127.963V35.2437L129.349 34.4163V9.90415L123.781 13.1898ZM135.205 6.50034V102.02H139.387V24.134L140.773 23.3067V3.21471L135.205 6.4767V6.50034Z" fill="#0D062A"/>
</svg>
