<svg class="dealroom" width="250" height="60" version="1.1" viewBox="0 0 250 60" xmlns="http://www.w3.org/2000/svg">
 <path d="m1.6855 0a1.686 1.69 0 0 0-1.6855 1.6895v56.615a1.693 1.696 0 0 0 1.6934 1.6953h56.613a1.693 1.696 0 0 0 1.6934-1.6953v-56.615a1.686 1.69 0 0 0-1.6855-1.6895zm26.137 16.697h8.9531c4.218 0 7.4792 1.0803 9.7812 3.2383 2.3007 2.1567 3.448 5.2735 3.4434 9.3535 0 4.388-1.2102 7.7686-3.6289 10.141-2.418 2.3707-5.8116 3.5591-10.184 3.5645h-8.3652zm55.613 1.2969v10.236h-0.0625a4.463 4.463 0 0 0-2.1133-1.5742 8.194 8.194 0 0 0-2.7891-0.46094 6.262 6.262 0 0 0-2.959 0.68359 6.809 6.809 0 0 0-2.2129 1.8242 8.493 8.493 0 0 0-1.3984 2.6211 9.721 9.721 0 0 0-0.49414 3.0977 9.164 9.164 0 0 0 0.54102 3.209 7.277 7.277 0 0 0 1.5449 2.5254 6.91 6.91 0 0 0 2.4004 1.6523l0.0059-2e-3a7.947 7.947 0 0 0 3.1191 0.59375 5.418 5.418 0 0 0 1.5449-0.22461 6.64 6.64 0 0 0 1.3691-0.57617 5.716 5.716 0 0 0 1.084-0.77734 5.496 5.496 0 0 0 0.74805-0.83984h0.05859v2.0352h4.3887v-24.023zm42.232 0v24.027l4.7754-0.0039v-24.023zm-88.207 4.4336a5.289 5.289 0 0 0-0.61719 0.01172h-1.9609l2e-3 14.725h1.4785a5.726 5.726 0 0 0 4.7441-1.877 9.08 9.08 0 0 0 1.5098-5.7441 8.348 8.348 0 0 0-1.4297-5.3613 5.289 5.289 0 0 0-3.7266-1.7539zm-18.576 1.207h7.0645v19.365l-7.0645-0.0059zm123.66 2.5605a4.587 4.587 0 0 0-2.6152 0.7168 5.863 5.863 0 0 0-1.8164 2.1445h-0.0625v-2.4766h-4.7734v15.441l4.7734-0.0039v-6.4492a15.767 15.767 0 0 1 0.1289-2.0957 4.063 4.063 0 0 1 0.55469-1.6348 2.91 2.91 0 0 1 1.2246-1.0664 5.126 5.126 0 0 1 2.168-0.37891 6.52 6.52 0 0 1 1.0332 0.08008 6.899 6.899 0 0 1 1.0059 0.23633v-4.3477a3.9 3.9 0 0 0-0.76562-0.13281c-0.279-0.034-0.55017-0.0332-0.82617-0.0332a4.587 4.587 0 0 0-0.0293 0zm10.549 0a9.799 9.799 0 0 0-3.3594 0.57227 8.103 8.103 0 0 0-2.7402 1.6348 7.709 7.709 0 0 0-1.832 2.5586 8.067 8.067 0 0 0-0.66602 3.3359 8.044 8.044 0 0 0 0.66602 3.334 7.686 7.686 0 0 0 1.832 2.5586 8.057 8.057 0 0 0 2.7402 1.6387h4e-3a9.852 9.852 0 0 0 3.3555 0.57031 9.857 9.857 0 0 0 3.3633-0.57031 8.059 8.059 0 0 0 2.7383-1.6387 7.686 7.686 0 0 0 1.832-2.5586 8.044 8.044 0 0 0 0.66602-3.334 8.067 8.067 0 0 0-0.66602-3.3359 7.709 7.709 0 0 0-1.832-2.5586 8.103 8.103 0 0 0-2.7383-1.6348 9.804 9.804 0 0 0-3.3633-0.57227zm18.82 0a9.831 9.831 0 0 0-3.3633 0.57227 8.103 8.103 0 0 0-2.7383 1.6348 7.702 7.702 0 0 0-1.8281 2.5586 8.068 8.068 0 0 0-0.67578 3.3359 8.044 8.044 0 0 0 0.67578 3.334 7.68 7.68 0 0 0 1.8281 2.5586 8.057 8.057 0 0 0 2.7383 1.6387h2e-3a9.884 9.884 0 0 0 3.3613 0.57031 9.852 9.852 0 0 0 3.3594-0.57031 7.997 7.997 0 0 0 2.7402-1.6387 7.686 7.686 0 0 0 1.832-2.5586 8.042 8.042 0 0 0 0.67383-3.334 8.066 8.066 0 0 0-0.67383-3.3359 7.709 7.709 0 0 0-1.832-2.5586 8.04 8.04 0 0 0-2.7402-1.6348 9.799 9.799 0 0 0-3.3594-0.57227zm54.832 0a9.799 9.799 0 0 0-3.3594 0.57227 8.055 8.055 0 0 0-2.7363 1.6348 7.653 7.653 0 0 0-1.8281 2.5586 8.068 8.068 0 0 0-0.67578 3.3359 8.044 8.044 0 0 0 0.67578 3.334 7.631 7.631 0 0 0 1.8281 2.5586 8.01 8.01 0 0 0 2.7363 1.6387 9.852 9.852 0 0 0 3.3594 0.57227 9.83 9.83 0 0 0 2.8789-0.46289 6.077 6.077 0 0 0 2.627-1.6074l-3.1504-3.3047a4.246 4.246 0 0 1-0.98633 0.82812 2.61 2.61 0 0 1-1.3691 0.34961 3.654 3.654 0 0 1-2.8125-1.082 3.98 3.98 0 0 1-1.0059-2.8242 3.975 3.975 0 0 1 1.0059-2.8242 3.643 3.643 0 0 1 2.8125-1.0801 2.902 2.902 0 0 1 1.3691 0.33203 2.658 2.658 0 0 1 0.98633 0.84375l3.1504-3.3066a6.106 6.106 0 0 0-2.627-1.6055 9.934 9.934 0 0 0-2.8789-0.46094zm14.648 0a9.817 9.817 0 0 0-3.3613 0.57227 8.103 8.103 0 0 0-2.7402 1.6348 7.709 7.709 0 0 0-1.832 2.5586 8.12 8.12 0 0 0-0.66601 3.3359 8.103 8.103 0 0 0 0.66601 3.334 7.686 7.686 0 0 0 1.832 2.5586 8.057 8.057 0 0 0 2.7402 1.6387 9.87 9.87 0 0 0 3.3613 0.57031 9.852 9.852 0 0 0 3.3594-0.57031 8.059 8.059 0 0 0 2.7402-1.6387 7.686 7.686 0 0 0 1.832-2.5586 8.044 8.044 0 0 0 0.67578-3.334 8.068 8.068 0 0 0-0.67578-3.3359 7.709 7.709 0 0 0-1.832-2.5586 8.103 8.103 0 0 0-2.7402-1.6348 9.799 9.799 0 0 0-3.3594-0.57227zm-141.85 2e-3a9.766 9.766 0 0 0-3.3555 0.57226 8.072 8.072 0 0 0-2.7402 1.6348 7.71 7.71 0 0 0-1.832 2.5586 8.12 8.12 0 0 0-0.66602 3.3359 8.103 8.103 0 0 0 0.66602 3.334 7.689 7.689 0 0 0 1.832 2.5586 8.027 8.027 0 0 0 2.7402 1.6387l0.0039-2e-3a9.819 9.819 0 0 0 3.3477 0.56641 8.692 8.692 0 0 0 3.6289-0.79297 7.61 7.61 0 0 0 2.9004-2.252l-3.3438-2.4453a5.355 5.355 0 0 1-1.416 1.3496 3.554 3.554 0 0 1-1.9941 0.52148 3.489 3.489 0 0 1-2.3535-0.80664 3.759 3.759 0 0 1-1.2383-2.1777h11.08v-1.4922a10.331 10.331 0 0 0-0.50781-3.3359 7.53 7.53 0 0 0-1.4492-2.5586 6.284 6.284 0 0 0-2.2949-1.6348 7.663 7.663 0 0 0-3.0078-0.57226zm16.594 0.0039a11.141 11.141 0 0 0-3.6934 0.62109 8.758 8.758 0 0 0-3.1191 1.8574l2.5488 2.6055a5.873 5.873 0 0 1 1.7344-1.3516 4.674 4.674 0 0 1 2.1465-0.49219 3.285 3.285 0 0 1 2.1504 0.74414 2.476 2.476 0 0 1 0.90625 2.0176c-0.656 0-1.3715 0.0102-2.1465 0.0332a21.676 21.676 0 0 0-2.3223 0.19141 14.127 14.127 0 0 0-2.2441 0.49414 6.64 6.64 0 0 0-1.9277 0.93555 4.424 4.424 0 0 0-1.3359 1.5273 4.712 4.712 0 0 0-0.49219 2.25 4.527 4.527 0 0 0 0.44922 2.0664 4.352 4.352 0 0 0 1.209 1.4941 5.187 5.187 0 0 0 1.7676 0.90039l4e-3 -0.0078a7.109 7.109 0 0 0 2.0742 0.31641 7.265 7.265 0 0 0 2.7891-0.54102 4.502 4.502 0 0 0 2.1152-1.7812h0.0606v1.9414h4.3906v-7.8477a16.48 16.48 0 0 0-0.31835-3.416 5.99 5.99 0 0 0-1.127-2.4961 5.03 5.03 0 0 0-2.1641-1.5371 9.648 9.648 0 0 0-3.4551-0.52539zm75.723 0.0039a5.493 5.493 0 0 0-1.5918 0.22461 5.66 5.66 0 0 0-1.3027 0.57226 4.714 4.714 0 0 0-0.98828 0.79492 3.966 3.966 0 0 0-0.63282 0.88867h-0.0703v-2.0996h-4.5801v15.439h4.7715v-7.6855a10.48 10.48 0 0 1 0.0976-1.4648 3.555 3.555 0 0 1 0.39844-1.252 2.256 2.256 0 0 1 0.87695-0.89062 2.938 2.938 0 0 1 1.4941-0.33203 1.846 1.846 0 0 1 1.2578 0.37695 2.216 2.216 0 0 1 0.62109 0.92188 3.995 3.995 0 0 1 0.22461 1.1465c0.019 0.399 0.0293 0.73767 0.0293 1.0137v8.1641h4.7754v-8.1641a6.1 6.1 0 0 1 0.14062-1.3359 3.161 3.161 0 0 1 0.48047-1.1094 2.282 2.282 0 0 1 0.88867-0.74609 3.165 3.165 0 0 1 1.3867-0.26953 1.751 1.751 0 0 1 1.6387 0.77539 3.576 3.576 0 0 1 0.46094 1.8594v8.9902h4.7695v-9.1152a12.088 12.088 0 0 0-0.26953-2.6191 6.095 6.095 0 0 0-0.89062-2.1289 4.312 4.312 0 0 0-1.6875-1.4297 5.9 5.9 0 0 0-2.627-0.52539 6.046 6.046 0 0 0-2.8965 0.63477 5.164 5.164 0 0 0-2.0039 2.1289 4.237 4.237 0 0 0-1.8906-2.0977 6.077 6.077 0 0 0-2.8809-0.66602zm-92.662 3.418a2.833 2.833 0 0 1 2.0313 0.85938 2.764 2.764 0 0 1 0.80078 2.0664h-6.3027a3.05 3.05 0 0 1 0.26953-1.0977 2.83 2.83 0 0 1 0.66602-0.91797 3.489 3.489 0 0 1 1.0352-0.6543l0.0039-2e-3a3.637 3.637 0 0 1 1.3906-0.25194 2.833 2.833 0 0 1 0.10547-2e-3zm-19.375 0.76367a3.662 3.662 0 0 1 0.16992 0.0059 3.652 3.652 0 0 1 0.18555-0.0059 3.652 3.652 0 0 1 2.6289 1.082 3.982 3.982 0 0 1 1.002 2.8281 3.976 3.976 0 0 1-1.002 2.8242 3.654 3.654 0 0 1-2.8145 1.082 3.664 3.664 0 0 1-2.8125-1.082 3.99 3.99 0 0 1-1.002-2.8242 3.996 3.996 0 0 1 1.002-2.8281h0.0039a3.662 3.662 0 0 1 2.6387-1.082zm73.084 0a3.655 3.655 0 0 1 0.18555 0.0059 3.657 3.657 0 0 1 0.19141-0.0059 3.657 3.657 0 0 1 2.6348 1.0879 3.975 3.975 0 0 1 1.0039 2.8242 3.978 3.978 0 0 1-1.0039 2.8242 3.669 3.669 0 0 1-2.8262 1.0801 3.666 3.666 0 0 1-2.8203-1.0801 3.98 3.98 0 0 1-1.0059-2.8242 3.975 3.975 0 0 1 1.0039-2.8242l4e-3 -2e-3a3.655 3.655 0 0 1 2.6328-1.0859zm18.824 0a3.662 3.662 0 0 1 0.18164 0.0059 3.662 3.662 0 0 1 0.18946-0.0059 3.662 3.662 0 0 1 2.6348 1.0879 3.99 3.99 0 0 1 1.0059 2.8242 3.993 3.993 0 0 1-1.0059 2.8242 3.673 3.673 0 0 1-2.8242 1.0801 3.673 3.673 0 0 1-2.8242-1.0801 3.978 3.978 0 0 1-1.0039-2.8242 3.975 3.975 0 0 1 1.0039-2.8242l6e-3 -2e-3a3.662 3.662 0 0 1 2.6367-1.0859zm69.477 0a3.662 3.662 0 0 1 0.1875 0.0059 3.666 3.666 0 0 1 0.18164-0.0059 3.666 3.666 0 0 1 2.6406 1.0879 3.987 3.987 0 0 1 1.0039 2.8242 3.99 3.99 0 0 1-1.002 2.8242 3.679 3.679 0 0 1-2.8242 1.0801 3.674 3.674 0 0 1-2.8262-1.0801 3.98 3.98 0 0 1-1.0059-2.8242 3.975 3.975 0 0 1 1.0059-2.8242v-2e-3a3.662 3.662 0 0 1 2.6387-1.0859zm-231.21 0.50387h7.0664v12.105l-7.0664-0.001953zm107.64 4.3613h1.1738v1.0117a2.541 2.541 0 0 1-0.29883 1.2715 2.566 2.566 0 0 1-0.81055 0.89062 3.948 3.948 0 0 1-1.1602 0.53906 4.76 4.76 0 0 1-1.3516 0.19141 3.064 3.064 0 0 1-1.5274-0.41211 1.368 1.368 0 0 1-0.72851-1.2734 1.538 1.538 0 0 1 0.52148-1.2383 3.48 3.48 0 0 1 1.2734-0.66602 7.026 7.026 0 0 1 1.5566-0.27148l6e-3 2e-3a21.76 21.76 0 0 1 1.3457-0.04492zm95.186 1.1074a3 3 0 0 0-1.1484 0.22656 2.813 2.813 0 0 0-0.9375 0.61719 2.889 2.889 0 0 0-0.62305 0.9375 3.054 3.054 0 0 0-0.22461 1.1445 3.054 3.054 0 0 0 0.22461 1.1465 2.902 2.902 0 0 0 0.62305 0.93555 2.77 2.77 0 0 0 0.9375 0.62109l6e-3 -2e-3a3.001 3.001 0 0 0 1.1426 0.22656 2.983 2.983 0 0 0 1.1465-0.22461 2.813 2.813 0 0 0 0.93946-0.62109 2.84 2.84 0 0 0 0.61914-0.93555 2.997 2.997 0 0 0 0.22851-1.1465 2.997 2.997 0 0 0-0.22851-1.1445 2.827 2.827 0 0 0-0.61914-0.9375 2.858 2.858 0 0 0-0.93946-0.61719 2.983 2.983 0 0 0-1.1465-0.22656z" style="fill:var(--colour-fg)"/>
</svg>
