<svg width="32" height="32" viewBox="0 0 32 32" fill="none" xmlns="http://www.w3.org/2000/svg">
<path d="M25 14C25 20 16 28 16 28C16 28 7 20 7 14C7 11 7.94821 9.32387 9.63604 7.63604C11.3239 5.94821 13.6131 5 16 5C18.3869 5 20.6761 5.94821 22.364 7.63604C24.0518 9.32387 25 11 25 14Z" stroke="url(#paint0_linear_2102_751)" stroke-width="2" stroke-miterlimit="2.61313" stroke-linecap="round"/>
<path d="M16 17C17.6569 17 19 15.6569 19 14C19 12.3431 17.6569 11 16 11C14.3431 11 13 12.3431 13 14C13 15.6569 14.3431 17 16 17Z" stroke="url(#paint1_linear_2102_751)" stroke-width="2" stroke-miterlimit="2.61313" stroke-linecap="round"/>
<defs>
<linearGradient id="paint0_linear_2102_751" x1="6.90381" y1="5" x2="29.4313" y2="10.8059" gradientUnits="userSpaceOnUse">
<stop offset="0.06" stop-color="#0D062A"/>
<stop offset="0.945" stop-color="#006E91"/>
</linearGradient>
<linearGradient id="paint1_linear_2102_751" x1="6.90381" y1="5" x2="29.4313" y2="10.8059" gradientUnits="userSpaceOnUse">
<stop offset="0.06" stop-color="#0D062A"/>
<stop offset="0.945" stop-color="#006E91"/>
</linearGradient>
</defs>
</svg>
