<svg width="32" height="32" viewBox="0 0 32 32" fill="none" xmlns="http://www.w3.org/2000/svg">
<path d="M29 30V25.5316C29 20.467 25.9937 16.0916 21.637 14.0308M3 30V25.5316C3 20.4417 6.03653 16.0478 10.4286 14M19 11C17.3431 13.6667 14.6569 13.6667 13 11M14 24C14 25.6569 12.6569 27 11 27C9.34315 27 8 25.6569 8 24C8 22.3431 9.34315 21 11 21C12.6569 21 14 22.3431 14 24ZM14 24H26M20 24V28M23 24V28M20.9497 5.05078C23.6834 7.78514 23.6834 12.2184 20.9497 14.9528C18.2208 17.6824 13.7792 17.6824 11.0503 14.9528C8.31658 12.2184 8.31658 7.78514 11.0503 5.05078C13.7839 2.31641 18.2161 2.31641 20.9497 5.05078Z" stroke="url(#paint0_linear_2102_723)" stroke-width="2" stroke-miterlimit="2.61313"/>
<defs>
<linearGradient id="paint0_linear_2102_723" x1="2.86106" y1="3" x2="34.3914" y2="12.9988" gradientUnits="userSpaceOnUse">
<stop offset="0.06" stop-color="#0D062A"/>
<stop offset="0.945" stop-color="#006E91"/>
</linearGradient>
</defs>
</svg>
