<svg width="32" height="32" viewBox="0 0 32 32" fill="none" xmlns="http://www.w3.org/2000/svg">
<path d="M23.296 25.5272C21.1457 27.1739 18.5017 28.0448 15.7937 27.9982C13.0857 27.9517 10.4731 26.9904 8.38076 25.2708C6.28838 23.5511 4.83925 21.1742 4.26901 18.5266C3.69877 15.8789 4.04095 13.1162 5.23992 10.6877C6.43889 8.2592 8.42412 6.30769 10.8728 5.1505C13.3215 3.99331 16.0897 3.6985 18.7272 4.31401C21.3647 4.92953 23.7164 6.41916 25.3999 8.54069C27.0835 10.6622 27.9998 13.2909 28 15.9992C28 19 25 21 23 21H20V11M20 16.5C20 18.9853 17.9853 21 15.5 21C13.0147 21 11 18.9853 11 16.5C11 14.0147 13.0147 12 15.5 12C17.9853 12 20 14.0147 20 16.5Z" stroke="url(#paint0_linear_2102_747)" stroke-width="2" stroke-miterlimit="2.61313"/>
<defs>
<linearGradient id="paint0_linear_2102_747" x1="3.87175" y1="4" x2="32.7696" y2="13.5165" gradientUnits="userSpaceOnUse">
<stop offset="0.06" stop-color="#0D062A"/>
<stop offset="0.945" stop-color="#006E91"/>
</linearGradient>
</defs>
</svg>
