<svg width="32" height="32" viewBox="0 0 32 32" fill="none" xmlns="http://www.w3.org/2000/svg">
<path d="M13 6C13 4.34315 14.3431 3 16 3C17.6569 3 19 4.34315 19 6C19 7.65685 17.6569 9 16 9C14.3431 9 13 7.65685 13 6Z" stroke="url(#paint0_linear_2102_735)" stroke-width="2" stroke-miterlimit="2.61313" stroke-dasharray="2 1"/>
<path d="M3 16C3 14.3431 4.34315 13 6 13C7.65685 13 9 14.3431 9 16C9 17.6569 7.65685 19 6 19C4.34315 19 3 17.6569 3 16Z" stroke="url(#paint1_linear_2102_735)" stroke-width="2" stroke-miterlimit="2.61313" stroke-dasharray="2 1"/>
<path d="M13 26C13 24.3431 14.3431 23 16 23C17.6569 23 19 24.3431 19 26C19 27.6569 17.6569 29 16 29C14.3431 29 13 27.6569 13 26Z" stroke="url(#paint2_linear_2102_735)" stroke-width="2" stroke-miterlimit="2.61313" stroke-dasharray="2 1"/>
<path d="M23 6C23 4.34315 24.3431 3 26 3C27.6569 3 29 4.34315 29 6C29 7.65685 27.6569 9 26 9C24.3431 9 23 7.65685 23 6Z" stroke="url(#paint3_linear_2102_735)" stroke-width="2" stroke-miterlimit="2.61313" stroke-dasharray="2 1"/>
<path d="M3 26C3 24.3431 4.34315 23 6 23C7.65685 23 9 24.3431 9 26C9 27.6569 7.65685 29 6 29C4.34315 29 3 27.6569 3 26Z" stroke="url(#paint4_linear_2102_735)" stroke-width="2" stroke-miterlimit="2.61313" stroke-dasharray="2 1"/>
<path d="M23 26C23 24.3431 24.3431 23 26 23C27.6569 23 29 24.3431 29 26C29 27.6569 27.6569 29 26 29C24.3431 29 23 27.6569 23 26Z" stroke="url(#paint5_linear_2102_735)" stroke-width="2" stroke-miterlimit="2.61313" stroke-dasharray="2 1"/>
<path d="M19 16C19 17.6569 17.6569 19 16 19C14.3431 19 13 17.6569 13 16C13 14.3431 14.3431 13 16 13C17.6569 13 19 14.3431 19 16ZM19 16H23M23 16C23 17.6569 24.3431 19 26 19C27.6569 19 29 17.6569 29 16C29 14.3431 27.6569 13 26 13C24.3431 13 23 14.3431 23 16ZM8 8L14 14M6 9C4.34315 9 3 7.65685 3 6C3 4.34315 4.34315 3 6 3C7.65685 3 9 4.34315 9 6C9 7.65685 7.65685 9 6 9Z" stroke="url(#paint6_linear_2102_735)" stroke-width="2"/>
<defs>
<linearGradient id="paint0_linear_2102_735" x1="2.86106" y1="3" x2="34.1671" y2="13.3095" gradientUnits="userSpaceOnUse">
<stop offset="0.06" stop-color="#0D062A"/>
<stop offset="0.945" stop-color="#006E91"/>
</linearGradient>
<linearGradient id="paint1_linear_2102_735" x1="2.86106" y1="3" x2="34.1671" y2="13.3095" gradientUnits="userSpaceOnUse">
<stop offset="0.06" stop-color="#0D062A"/>
<stop offset="0.945" stop-color="#006E91"/>
</linearGradient>
<linearGradient id="paint2_linear_2102_735" x1="2.86106" y1="3" x2="34.1671" y2="13.3095" gradientUnits="userSpaceOnUse">
<stop offset="0.06" stop-color="#0D062A"/>
<stop offset="0.945" stop-color="#006E91"/>
</linearGradient>
<linearGradient id="paint3_linear_2102_735" x1="2.86106" y1="3" x2="34.1671" y2="13.3095" gradientUnits="userSpaceOnUse">
<stop offset="0.06" stop-color="#0D062A"/>
<stop offset="0.945" stop-color="#006E91"/>
</linearGradient>
<linearGradient id="paint4_linear_2102_735" x1="2.86106" y1="3" x2="34.1671" y2="13.3095" gradientUnits="userSpaceOnUse">
<stop offset="0.06" stop-color="#0D062A"/>
<stop offset="0.945" stop-color="#006E91"/>
</linearGradient>
<linearGradient id="paint5_linear_2102_735" x1="2.86106" y1="3" x2="34.1671" y2="13.3095" gradientUnits="userSpaceOnUse">
<stop offset="0.06" stop-color="#0D062A"/>
<stop offset="0.945" stop-color="#006E91"/>
</linearGradient>
<linearGradient id="paint6_linear_2102_735" x1="2.86106" y1="3" x2="29.8371" y2="17.4358" gradientUnits="userSpaceOnUse">
<stop offset="0.06" stop-color="#0D062A"/>
<stop offset="0.945" stop-color="#006E91"/>
</linearGradient>
</defs>
</svg>
