<svg width="32" height="32" viewBox="0 0 32 32" fill="none" xmlns="http://www.w3.org/2000/svg">
<path d="M19.1421 8.79674L10.8579 13.5989M19.1421 8.79674C17.8021 7.47065 17.8021 5.32065 19.1421 3.99456C20.4822 2.66848 22.6549 2.66848 23.9949 3.99456C25.335 5.32065 25.335 7.47065 23.9949 8.79674C22.6549 10.1228 20.4822 10.1228 19.1421 8.79674ZM10.8579 13.5989C12.1979 14.925 12.1979 17.075 10.8579 18.4011M10.8579 13.5989C9.5178 12.2728 7.34512 12.2728 6.00505 13.5989C4.66498 14.925 4.66498 17.075 6.00505 18.4011C7.34512 19.7272 9.5178 19.7272 10.8579 18.4011M10.8579 18.4011L19.1421 23.2033M19.1421 23.2033C17.8021 24.5293 17.8021 26.6794 19.1421 28.0054C20.4822 29.3315 22.6549 29.3315 23.9949 28.0054C25.335 26.6794 25.335 24.5293 23.9949 23.2033C22.6549 21.8772 20.4822 21.8772 19.1421 23.2033Z" stroke="url(#paint0_linear_2102_759)" stroke-width="2"/>
<defs>
<linearGradient id="paint0_linear_2102_759" x1="4.89312" y1="3" x2="29.9767" y2="9.35411" gradientUnits="userSpaceOnUse">
<stop offset="0.06" stop-color="#0D062A"/>
<stop offset="0.945" stop-color="#006E91"/>
</linearGradient>
</defs>
</svg>
