<svg width="128" height="128" viewBox="0 0 128 128" fill="none" xmlns="http://www.w3.org/2000/svg">
<path d="M74.6289 11.3082L67.6095 14.4865C65.2426 15.5582 62.5279 15.5547 60.1638 14.4768L53.1201 11.2656C48.8741 9.3298 43.8527 10.9605 41.5542 15.0217L37.796 21.6619C36.5109 23.9324 34.3039 25.5335 31.7467 26.0504L24.2561 27.5646C19.6737 28.4909 16.5635 32.7715 17.0984 37.4159L17.9755 45.0319C18.2739 47.6227 17.4338 50.2155 15.6728 52.139L10.5155 57.7722C7.3656 61.2128 7.36656 66.4899 10.5177 69.9294L15.7625 75.6539C17.5168 77.5687 18.3585 80.1479 18.0713 82.7289L17.216 90.4158C16.7019 95.0364 19.7916 99.2881 24.345 100.226L31.9732 101.797C34.5107 102.32 36.6999 103.911 37.9807 106.163L41.8363 112.942C44.1353 116.985 49.1354 118.61 53.3718 116.692L60.3912 113.513C62.7582 112.442 65.4728 112.445 67.837 113.523L74.8804 116.734C79.1264 118.67 84.1478 117.039 86.4463 112.978L90.2045 106.338C91.4896 104.068 93.6967 102.466 96.2539 101.949L103.744 100.435C108.327 99.5091 111.437 95.2283 110.902 90.5838L110.025 82.9685C110.025 82.9685 110.566 77.7846 112.327 75.861L117.485 70.2277C120.635 66.7872 120.634 61.5103 117.483 58.0709L112.238 52.3458C110.484 50.431 109.642 47.8519 109.929 45.271L110.785 37.5839C111.299 32.9634 108.209 28.7117 103.656 27.7737L96.0275 26.2024C93.49 25.6797 91.3009 24.0888 90.0201 21.8368L86.1645 15.0575C83.8654 11.0152 78.8653 9.38999 74.6289 11.3082Z" stroke="url(#paint0_linear_2102_681)" stroke-width="6"/>
<path d="M41.8442 60.565L31.4812 62.9352L33.4023 71.2838M33.4023 71.2838L35.6892 81.2227M33.4023 71.2838L41.7724 69.3694M50.724 68.1589L48.62 59.0152L53.8015 57.83C57.3887 57.0096 59.3306 58.1556 59.9892 61.018C60.6479 63.8804 59.4927 66.1533 55.9055 66.9738M50.724 68.1589L52.828 77.3026M50.724 68.1589L55.9055 66.9738M63.1395 74.4295L55.9055 66.9738M78.1147 52.2691L68.5488 54.457L70.4699 62.8056M81.8378 68.4491L72.2719 70.637L70.4699 62.8056M70.4699 62.8056L79.2386 60.8M94.4563 48.5314L84.8905 50.7193L86.8115 59.0679M98.1211 64.4581L88.5553 66.646L86.8115 59.0679M86.8115 59.0679L95.5802 57.0623M35.0676 90.3646L100.697 74.8766M26.3125 53.8471L91.9423 38.3592" stroke="url(#paint1_linear_2102_681)" stroke-width="6"/>
<defs>
<linearGradient id="paint0_linear_2102_681" x1="9.57829" y1="8.00326" x2="141.363" y2="58.2837" gradientUnits="userSpaceOnUse">
<stop offset="0.06" stop-color="#0D062A"/>
<stop offset="0.945" stop-color="#006E91"/>
</linearGradient>
<linearGradient id="paint1_linear_2102_681" x1="100.05" y1="92.7238" x2="51.4331" y2="19.7058" gradientUnits="userSpaceOnUse">
<stop stop-color="#D10956"/>
<stop offset="1" stop-color="#02B1D0"/>
</linearGradient>
</defs>
</svg>
