<svg width="128" height="128" viewBox="0 0 128 128" fill="none" xmlns="http://www.w3.org/2000/svg">
<path d="M87 48V21C87 12.1634 79.8366 5 71 5H27V123M87 48H111C117.627 48 123 53.3504 123 59.9778C123 79.379 123 116.2 123 123H5C5 115.476 5.00001 60.7633 5.00001 39.98C5.00001 35.5617 8.58173 32 13 32H27M87 48V123M19 96H13M19 64H13M57 123H76V100C76 97.7909 74.2091 96 72 96H42C39.7909 96 38 97.7909 38 100V123H57ZM57 123V96M115 112H95M115 80H95M41 64H35M41 48H35M79 80H73M79 48H73M79 32H73M67 80H61M67 18H61" stroke="url(#paint0_linear_2102_659)" stroke-width="6" stroke-miterlimit="2.61313"/>
<path d="M54 80H35M48 64H79M48 48H67M67 32H35M35 18H54M19 112H13M19 80H13M115 96H95M115 64H95M19 48H13" stroke="url(#paint1_linear_2102_659)" stroke-width="6" stroke-miterlimit="2.61313"/>
<defs>
<linearGradient id="paint0_linear_2102_659" x1="4.36942" y1="5.00001" x2="146.451" y2="51.7892" gradientUnits="userSpaceOnUse">
<stop offset="0.06" stop-color="#0D062A"/>
<stop offset="0.945" stop-color="#006E91"/>
</linearGradient>
<linearGradient id="paint1_linear_2102_659" x1="115" y1="112" x2="21.3127" y2="10.3393" gradientUnits="userSpaceOnUse">
<stop stop-color="#D10956"/>
<stop offset="1" stop-color="#02B1D0"/>
</linearGradient>
</defs>
</svg>
