<svg width="128" height="128" viewBox="0 0 128 128" fill="none" xmlns="http://www.w3.org/2000/svg">
<path d="M32 88V106C32 110.418 35.5817 114 40 114H112V43L83 14H68M83 16V27C83 35.8366 90.1635 43 99 43H110" stroke="url(#paint0_linear_2102_673)" stroke-width="6"/>
<path d="M80 101.5V72M64 101.5V81M96 101.5V56M48 101.5V88M43.5 21C37.2069 21 31.1041 23.1584 26.2103 27.115C21.3166 31.0716 17.9279 36.587 16.6099 42.7406C15.2919 48.8942 16.1243 55.3136 18.9683 60.9275C21.8122 66.5414 26.4955 71.01 32.2366 73.5876C37.9777 76.1651 44.4291 76.6956 50.5141 75.0904C56.5991 73.4853 61.9495 69.8417 65.6723 64.7678C69.395 59.6938 71.2649 53.4966 70.9697 47.2103C70.6746 40.9241 68.2324 34.9293 64.0506 30.2265L43.5 48.5M43.5 21L43.5 48.5M43.5 21C47.8398 21 52.118 22.0271 55.9847 23.9973C59.8515 25.9675 63.1971 28.8249 65.748 32.3359C68.2988 35.8469 69.9825 39.9117 70.6614 44.198C71.3403 48.4844 70.9951 52.8706 69.6541 56.998C68.313 61.1253 66.0141 64.8767 62.9454 67.9454C59.8768 71.0141 56.1254 73.313 51.998 74.6541C47.8706 75.9951 43.4844 76.3403 39.1981 75.6614C34.9117 74.9825 30.8469 73.2988 27.3359 70.748L43.5 48.5" stroke="url(#paint1_linear_2102_673)" stroke-width="6"/>
<defs>
<linearGradient id="paint0_linear_2102_673" x1="31.5725" y1="14" x2="131.415" y2="40.3037" gradientUnits="userSpaceOnUse">
<stop offset="0.06" stop-color="#0D062A"/>
<stop offset="0.945" stop-color="#006E91"/>
</linearGradient>
<linearGradient id="paint1_linear_2102_673" x1="96" y1="101.5" x2="15.5016" y2="21.5015" gradientUnits="userSpaceOnUse">
<stop stop-color="#D10956"/>
<stop offset="1" stop-color="#02B1D0"/>
</linearGradient>
</defs>
</svg>
