<svg width="128" height="128" viewBox="0 0 128 128" fill="none" xmlns="http://www.w3.org/2000/svg">
<path d="M40 40H77M28 40H34M40 56H77M28 56H34M40 72H77M28 72H34M40 88H77M28 88H34M40 104H77M28 104H34" stroke="url(#paint0_linear_2102_679)" stroke-width="6"/>
<path d="M32 8H88C96.8366 8 104 15.1634 104 24V104M16 24H80C84.4183 24 88 27.5817 88 32V120H32C23.1634 120 16 112.837 16 104V24Z" stroke="url(#paint1_linear_2102_679)" stroke-width="6"/>
<defs>
<linearGradient id="paint0_linear_2102_679" x1="77" y1="104" x2="15.2164" y2="56.6969" gradientUnits="userSpaceOnUse">
<stop stop-color="#D10956"/>
<stop offset="1" stop-color="#02B1D0"/>
</linearGradient>
<linearGradient id="paint1_linear_2102_679" x1="15.5297" y1="8.00001" x2="125.61" y2="36.4828" gradientUnits="userSpaceOnUse">
<stop offset="0.06" stop-color="#0D062A"/>
<stop offset="0.945" stop-color="#006E91"/>
</linearGradient>
</defs>
</svg>
