<svg width="128" height="128" viewBox="0 0 128 128" fill="none" xmlns="http://www.w3.org/2000/svg">
<path d="M16 84C11.5817 84 8 87.5817 8 92C8 96.4183 11.5817 100 16 100C20.4183 100 24 96.4183 24 92C24 87.5817 20.4183 84 16 84ZM16 84V51" stroke="url(#paint0_linear_2102_663)" stroke-width="6" stroke-miterlimit="2.61313"/>
<path d="M32 56.5V76C39.7038 83.0658 51.1813 87 64 87C76.8187 87 88.2962 83.0658 96 76V56.5M8 48L64 28L120 48L64 68L8 48Z" stroke="url(#paint1_linear_2102_663)" stroke-width="6" stroke-miterlimit="2.61313"/>
<defs>
<linearGradient id="paint0_linear_2102_663" x1="24" y1="100" x2="-4.91682" y2="90.5578" gradientUnits="userSpaceOnUse">
<stop stop-color="#D10956"/>
<stop offset="1" stop-color="#02B1D0"/>
</linearGradient>
<linearGradient id="paint1_linear_2102_663" x1="7.40149" y1="28" x2="114.881" y2="95.1892" gradientUnits="userSpaceOnUse">
<stop offset="0.06" stop-color="#0D062A"/>
<stop offset="0.945" stop-color="#006E91"/>
</linearGradient>
</defs>
</svg>
