<svg width="128" height="128" viewBox="0 0 128 128" fill="none" xmlns="http://www.w3.org/2000/svg">
<path d="M35 28.7317L30.7579 27.7813C28.25 27.3269 26.2291 30.0721 27.0873 32.7673C27.0873 32.7673 27.6807 35.4374 30.1837 44.3733C30.1837 51.8983 16 67.9612 16 82.2478C16 91.3272 18.442 98.1964 22.6818 103.732M93 28.7317L97.2421 27.7814C99.75 27.3259 101.771 30.0778 100.913 32.7796C100.913 32.7796 100.319 35.4561 97.8163 44.4137C97.8163 51.957 112 68.0589 112 82.3803C112 91.381 109.612 98.2149 105.458 103.732M37 41.7317H91M99 82.9972C99 105.235 83.33 111.732 64 111.732C44.67 111.732 29 105.235 29 82.9972C29 67.8086 46 50.7317 46 42.7317C43 32.7317 42.2887 30.3931 42.2887 30.3931C41.2601 27.5277 43.6823 24.6092 46.6882 25.0923L54.1697 26.2947C55.3306 26.4812 56.5148 26.1476 57.4075 25.3824L61.3968 21.963C62.8948 20.679 65.1052 20.679 66.6032 21.963L70.5925 25.3824C71.4852 26.1476 72.6694 26.4812 73.8303 26.2947L81.3118 25.0923C84.3177 24.6092 86.7399 27.5276 85.7113 30.3931C85.7113 30.3931 85 33.2317 82 42.7317C82 50.7317 99 67.8086 99 82.9972Z" stroke="url(#paint0_linear_2102_665)" stroke-width="6" stroke-miterlimit="2.61313"/>
<path d="M74 69.7314C74 64.2086 69.5228 59.7314 64 59.7314C58.4771 59.7314 53 63.7314 54 73.2314C54.6316 79.2314 55.9704 83.7053 53.5 90.7314H77M66 77.2314H54.4999" stroke="url(#paint1_linear_2102_665)" stroke-width="6" stroke-miterlimit="2.61313"/>
<defs>
<linearGradient id="paint0_linear_2102_665" x1="15.487" y1="21" x2="129.743" y2="60.8106" gradientUnits="userSpaceOnUse">
<stop offset="0.06" stop-color="#0D062A"/>
<stop offset="0.945" stop-color="#006E91"/>
</linearGradient>
<linearGradient id="paint1_linear_2102_665" x1="77" y1="90.7314" x2="47.1523" y2="68.105" gradientUnits="userSpaceOnUse">
<stop stop-color="#D10956"/>
<stop offset="1" stop-color="#02B1D0"/>
</linearGradient>
</defs>
</svg>
