<svg width="32" height="32" viewBox="0 0 32 32" fill="none" xmlns="http://www.w3.org/2000/svg">
<path d="M15 24.0002H25M14.5 7.00022L16.2255 13.9024C16.4631 14.8528 15.1451 15.7908 14.2179 15.4747C10.5359 14.2197 5.18098 14.6383 2.5 20.0002M14.5 7.00022H4M14.5 7.00022H17M4 7.00022L3 13.0002M4 7.00022H1M18 14.0002L27.5262 16.5983C28.3964 16.8356 29 17.6259 29 18.5278V24.0002M29 14.0002V5.00023C26 5.00023 23 8.43191 23 4.88845C23 1.25214 20 4.00023 17 4.00023M16 23.5002C16 26.5378 13.5376 29.0002 10.5 29.0002C7.46243 29.0002 5 26.5378 5 23.5002C5 20.4627 7.46243 18.0002 10.5 18.0002C13.5376 18.0002 16 20.4627 16 23.5002ZM30 26.0002C30 27.6571 28.6569 29.0002 27 29.0002C25.3431 29.0002 24 27.6571 24 26.0002C24 24.3434 25.3431 23.0002 27 23.0002C28.6569 23.0002 30 24.3434 30 26.0002Z" stroke="url(#paint0_linear_2102_775)" stroke-width="2" stroke-miterlimit="2.61313"/>
<defs>
<linearGradient id="paint0_linear_2102_775" x1="0.845028" y1="3.00488" x2="34.9474" y2="15.5333" gradientUnits="userSpaceOnUse">
<stop offset="0.06" stop-color="#0D062A"/>
<stop offset="0.945" stop-color="#006E91"/>
</linearGradient>
</defs>
</svg>
