<svg width="32" height="32" viewBox="0 0 32 32" fill="none" xmlns="http://www.w3.org/2000/svg">
<path d="M29 21H2.99998L1.62125 26.5149C1.30567 27.7772 2.26039 29 3.56153 29H28.4384C29.7396 29 30.6943 27.7772 30.3787 26.5149L29 21ZM29 21V16M29 6V5C29 3.89543 28.1045 3 27 3H4.99998C3.89541 3 2.99998 3.89543 2.99998 5V18H10.0801C10.664 18 11.2187 17.7449 11.5986 17.3016L17 11L23 15L29 9M29 9L29 14M29 9H24M9.99996 8C9.99996 7 8.99996 6 7.99996 6C6.82489 6 5.78722 6.85484 5.99998 9C6.13436 10.3548 6.52559 11.4135 5.99998 13H11M8.49996 10H6.2186M4.99998 25H6.99998M13 25H15M21 25H23M8.99998 25H11M17 25H19M25 25H27" stroke="url(#paint0_linear_2102_819)" stroke-width="2" stroke-miterlimit="2.61313"/>
<defs>
<linearGradient id="paint0_linear_2102_819" x1="1.40622" y1="3" x2="35.4013" y2="15.4346" gradientUnits="userSpaceOnUse">
<stop offset="0.06" stop-color="#0D062A"/>
<stop offset="0.945" stop-color="#006E91"/>
</linearGradient>
</defs>
</svg>
