<svg width="32" height="32" viewBox="0 0 32 32" fill="none" xmlns="http://www.w3.org/2000/svg">
<path d="M16 13C15.4935 13 12.7919 12.4869 10.249 11.9805C7.57781 11.4485 4.95644 13.125 4.34688 15.7796L2.76607 22.6638C2.33558 24.5384 3.43825 26.4244 5.28308 26.9688C7.32565 27.5715 9.513 26.6765 10.5472 24.8149L11 24H21L21.2914 24.6557C22.2551 26.824 24.7272 27.8831 26.9618 27.0851C28.6944 26.4663 29.6897 24.6488 29.2779 22.8557L27.6531 15.7796C27.0435 13.125 24.4221 11.4485 21.7509 11.9805C19.208 12.4869 16.5065 13 16 13ZM16 13C16 4 9.99997 9 9.99997 1.5V0M11 15V18M11 18V21M11 18H7.99997M11 18H14M21 20H23M21 16H23" stroke="url(#paint0_linear_2102_823)" stroke-width="2"/>
<defs>
<linearGradient id="paint0_linear_2102_823" x1="2.53043" y1="2.10345e-06" x2="34.8253" y2="10.3813" gradientUnits="userSpaceOnUse">
<stop offset="0.06" stop-color="#0D062A"/>
<stop offset="0.945" stop-color="#006E91"/>
</linearGradient>
</defs>
</svg>
