<svg width="32" height="32" viewBox="0 0 32 32" fill="none" xmlns="http://www.w3.org/2000/svg">
<path d="M8.15054 18.1278L7.24271 19.0356C4.89956 21.3788 4.89957 25.1778 7.24271 27.5209C9.58586 29.8641 13.3848 29.8641 15.728 27.5209L20.0038 23.2451C22.3424 20.9065 22.3811 17.1269 20.0909 14.7409L19.8726 14.5135C17.9299 12.4896 14.8042 12.1779 12.5001 13.7783M23.0628 13.6358L23.9706 12.728C26.3138 10.3848 26.3138 6.58586 23.9706 4.24271C21.6275 1.89957 17.8285 1.89957 15.4853 4.24271L11.3764 8.35164C8.96972 10.7583 8.99798 14.669 11.4392 17.0407L11.7835 17.3751C13.6569 19.1952 16.5506 19.45 18.7133 17.9854" stroke="#0D062A" stroke-width="2" stroke-miterlimit="2.61313"/>
</svg>
