<svg width="128" height="128" viewBox="0 0 128 128" fill="none" xmlns="http://www.w3.org/2000/svg">
<path d="M46.5 66.8795L48.9446 73.0667C49.9305 75.739 48.5539 78.701 45.8698 79.6825C43.1858 80.6641 40.2108 79.2935 39.2249 76.6213L37 70.0043M112 43V114H40C35.5817 114 32 110.418 32 106V88M112 43L83 14M112 43H99C90.1635 43 83 35.8366 83 27V14M83 14H68M80 101.5V72M64 101.5V81M96 101.5V56M48 101.5V88M21.7635 59L51.6965 16L80.2634 55.7738L30.5269 72.1335L22.7635 77.5L14 64.3665L21.7635 59Z" stroke="white" stroke-width="3"/>
</svg>
