<svg width="128" height="128" viewBox="0 0 128 128" fill="none" xmlns="http://www.w3.org/2000/svg">
<path d="M61.1731 97H78.8269M48.4 51.7871L53.8 56.3119M70 45V52.2396M53.8 84.8179L48.4 89.3427M43 71.2436H50.2M91.6 51.7871L86.2 56.3119M86.2 84.8179L91.6 89.3427M97 71.2436H89.8M13 93V29C13 24.5817 16.5817 21 21 21H35L41 27H103M57 70.7728C57 63.7186 63.0412 58 70 58C76.9588 58 83 63.7186 83 70.7728C83 75.7878 80.1488 79.9171 76 82.0072V89H64V82.0072C59.8512 79.9171 57 75.7878 57 70.7728ZM115 39V94C115 100.627 109.627 106 103 106H25V43C25 40.7909 26.7909 39 29 39H115Z" stroke="white" stroke-width="3"/>
</svg>
