<svg width="128" height="128" viewBox="0 0 128 128" fill="none" xmlns="http://www.w3.org/2000/svg">
<path d="M87 11L113 37M87 11V21C87 29.8366 94.1634 37 103 37H113M87 11H13V93C13 97.4183 16.5817 101 21 101H45M113 37V61M73 53V34M33 81V45M93 45V58.5L77 77M53 77V21M53 77C53 83.1421 55.3431 89.2843 60.0294 93.9706C69.402 103.343 84.598 103.343 93.9706 93.9706M53 77C53 70.8579 55.3431 64.7157 60.0294 60.0294C69.402 50.6569 84.598 50.6569 93.9706 60.0294C98.317 64.3759 100.648 69.9747 100.963 75.6644C100.988 76.1092 101 76.5546 101 77M53 77H77M93.9706 93.9706C98.6569 89.2843 101 83.1421 101 77M93.9706 93.9706L113 113M77 77H101" stroke="white" stroke-width="3"/>
</svg>
