<svg width="128" height="128" viewBox="0 0 128 128" fill="none" xmlns="http://www.w3.org/2000/svg">
<path d="M53 48H120V96C120 104.837 112.837 112 104 112H42.3371C41.1281 112 39.9348 112.274 38.8469 112.801L24 120V80M101 35V16.4848V8L85.8339 15.6312C84.7184 16.1925 83.4869 16.4848 82.2381 16.4848H24C15.1634 16.4848 8 23.6483 8 32.4849V40V80M69 103.5V85M53 103.5V77M85 103.5V72M37 103.5V96M101 103.5V62M40.5745 42.3871C40.5745 37.755 36.9546 34 32.4894 34C28.0241 34 23.5957 37.3548 24.4042 45.3226C24.9149 50.3548 25.9973 54.1071 24 60H43M34 48H24.7225" stroke="white" stroke-width="3" stroke-miterlimit="2.61313"/>
</svg>
