<svg width="128" height="128" viewBox="0 0 128 128" fill="none" xmlns="http://www.w3.org/2000/svg">
<path d="M104 48H24C15.1634 48 8 55.1634 8 64V120L22.8469 112.801C23.9348 112.274 25.1281 112 26.3371 112H88C96.8366 112 104 104.837 104 96V92M27 40V32.4849C27 23.6483 34.1634 16.4848 43 16.4848H101.238C102.487 16.4848 103.718 16.1925 104.834 15.6312L120 8V40M24 64H80M24 80H69M24 96H61M75 96H80.9159C81.8851 96 82.8147 95.615 83.5 94.9296L117.5 61.1682C118.927 59.741 118.927 57.4272 117.5 56L115 53.3089C113.573 51.8818 111.166 51.8818 109.739 53.3089L76.0704 87.5C75.385 88.1853 75 89.1149 75 90.0841V96Z" stroke="white" stroke-width="3" stroke-miterlimit="2.61313"/>
</svg>
